<?xml version="1.0" encoding="UTF-8"?>
<svg id="Capa_2" data-name="Capa 2" xmlns="http://www.w3.org/2000/svg" viewBox="0 0 576.18 107.71">
  <defs>
    <style>
      .cls-1 {
        fill: #fff;
      }
    </style>
  </defs>
  <g id="DISEÑO">
    <g>
      <path class="cls-1" d="m0,62.71c0-16.88,11.38-27.86,28.67-27.86,15.34,0,26,7.75,26,20.27v.65h-9.61v-.65c0-7.75-5.41-11.95-16.63-11.95-13,0-19.22,6.06-19.22,19.54s6.14,19.46,18.81,19.46,18.01-3.55,18.01-12.68v-.73h-20.03v-6.62h28.67v27.62h-7.91v-11.71h-.57c-2.26,7.91-9.12,12.52-19.7,12.52-15.91,0-26.48-10.98-26.48-27.86Z"/>
      <path class="cls-1" d="m59.59,89.76v-54.1h28.1c12.27,0,19.86,5.81,19.86,15.91,0,8.96-5.89,14.45-16.07,15.02v.57c4.2,1.13,6.14,3.55,8.07,6.94l9.04,15.67h-10.01l-8.64-14.94c-2.42-4.28-4.93-6.06-11.71-6.06h-9.93v20.99h-8.72Zm8.72-27.7h19.3c7.27,0,10.9-2.5,10.9-9.29s-3.63-9.29-10.9-9.29h-19.3v18.57Z"/>
      <path class="cls-1" d="m111.11,89.76l24.14-54.1h12.27l24.14,54.1h-9.85l-6.22-14.05h-28.59l-6.22,14.05h-9.69Zm19.38-21.88h21.64l-7.35-16.47-3.15-7.67h-.65l-3.15,7.67-7.35,16.47Z"/>
      <path class="cls-1" d="m175.71,89.76v-54.1h9.37l24.22,31.65,7.03,10.09h.65l-.4-9.77v-31.98h8.72v54.1h-9.37l-24.39-31.57-6.78-9.53h-.65l.32,9.37v31.73h-8.72Z"/>
      <path class="cls-1" d="m240.5,107.71V0h4.16v107.71h-4.16Z"/>
      <path class="cls-1" d="m261.27,89.76v-54.1h11.87l15.58,31.33,4.93,11.22h.65l4.76-11.22,15.42-31.33h11.87v54.1h-8.72v-33.19l.32-7.83h-.65l-3.31,7.83-14.94,29.96h-10.5l-14.94-29.96-3.31-7.83h-.65l.32,7.83v33.19h-8.72Z"/>
      <path class="cls-1" d="m329.62,89.76l24.14-54.1h12.27l24.14,54.1h-9.85l-6.22-14.05h-28.59l-6.22,14.05h-9.69Zm19.38-21.88h21.64l-7.35-16.47-3.15-7.67h-.65l-3.15,7.67-7.35,16.47Z"/>
      <path class="cls-1" d="m394.7,89.76v-54.1h24.63c16.8,0,27.37,10.34,27.37,27.05s-10.58,27.05-27.37,27.05h-24.63Zm8.64-46.27v38.44h15.99c12.52,0,18.17-5.33,18.17-19.22s-5.65-19.22-18.17-19.22h-15.99Z"/>
      <path class="cls-1" d="m453.16,89.76v-54.1h28.1c12.27,0,19.86,5.81,19.86,15.91,0,8.96-5.89,14.45-16.07,15.02v.57c4.2,1.13,6.14,3.55,8.07,6.94l9.04,15.67h-10.01l-8.64-14.94c-2.42-4.28-4.93-6.06-11.71-6.06h-9.93v20.99h-8.72Zm8.72-27.7h19.3c7.27,0,10.9-2.5,10.9-9.29s-3.63-9.29-10.9-9.29h-19.3v18.57Z"/>
      <path class="cls-1" d="m507.42,89.76v-54.1h8.72v54.1h-8.72Z"/>
      <path class="cls-1" d="m524.17,89.76v-54.1h24.63c16.8,0,27.37,10.34,27.37,27.05s-10.58,27.05-27.37,27.05h-24.63Zm8.64-46.27v38.44h15.99c12.52,0,18.17-5.33,18.17-19.22s-5.65-19.22-18.17-19.22h-15.99Z"/>
    </g>
  </g>
</svg>